<svg height="488pt" viewBox="0 -12 488.618 488" width="488pt" xmlns="http://www.w3.org/2000/svg"><path d="m294.660156 35.101562h-50.796875v-30.792968h50.796875c2.210938 0 4 1.789062 4 4v22.792968c0 2.210938-1.789062 4-4 4zm0 0" fill="#6bdddd"/><path d="m476.753906 229.253906h-466.023437c-3.714844 0-6.730469-3.011718-6.730469-6.730468v-20.1875c0-3.71875 3.011719-6.730469 6.730469-6.730469h466.023437c3.714844 0 6.730469 3.011719 6.730469 6.730469v20.1875c0 3.71875-3.011719 6.730468-6.730469 6.730468zm0 0" fill="#f9a7a7"/><path d="m476.753906 233.253906h-466.023437c-5.917969 0-10.730469-4.8125-10.730469-10.730468v-20.1875c0-5.917969 4.8125-10.730469 10.730469-10.730469h466.023437c5.917969 0 10.730469 4.8125 10.730469 10.730469v20.1875c0 5.917968-4.8125 10.730468-10.730469 10.730468zm-466.023437-33.648437c-1.503907 0-2.730469 1.222656-2.730469 2.730469v20.1875c0 1.503906 1.222656 2.730468 2.730469 2.730468h466.023437c1.503906 0 2.730469-1.222656 2.730469-2.730468v-20.1875c0-1.503907-1.222656-2.730469-2.730469-2.730469zm0 0" fill="#3762cc"/><path d="m461.613281 386.550781h-435.742187c-3.714844 0-6.730469-3.011719-6.730469-6.730469v-150.566406h449.203125v150.566406c0 3.71875-3.015625 6.730469-6.730469 6.730469zm0 0" fill="#f9cfcf"/><path d="m461.613281 390.550781h-435.742187c-5.914063 0-10.730469-4.8125-10.730469-10.730469v-150.566406c0-2.207031 1.792969-4 4-4h449.203125c2.207031 0 4 1.792969 4 4v150.566406c0 5.917969-4.816406 10.730469-10.730469 10.730469zm-438.472656-157.296875v146.570313c0 1.503906 1.226563 2.730469 2.730469 2.730469h435.742187c1.503907 0 2.730469-1.226563 2.730469-2.730469v-146.570313zm0 0" fill="#3762cc"/><path d="m323.839844 159.46875-74.859375-59.609375c-3.066407-2.441406-7.414063-2.441406-10.476563 0l-74.851562 59.605469-22.925782 18.210937c-3.269531 2.597657-7.945312 2.40625-10.988281-.449219l-10.117187-9.492187c-3.746094-3.507813-3.5-9.527344.519531-12.71875l118.371094-94.09375c3.0625-2.4375 7.402343-2.4375 10.464843 0l118.371094 94.09375c4.019532 3.195313 4.265625 9.210937.519532 12.71875l-10.121094 9.492187c-3.042969 2.855469-7.71875 3.046876-10.984375.449219zm0 0" fill="#f9a7a7"/><path d="m323.839844 159.507812-74.859375-59.605468c-3.066407-2.441406-7.414063-2.441406-10.476563 0l-74.851562 59.605468-8.238282 6.542969v220.5h176.652344v-220.5zm0 0" fill="#e0ebfc"/><path d="m384.578125 351.023438h-23.144531c-1.972656 0-3.566406-1.597657-3.566406-3.570313v-28.191406c0-1.972657 1.597656-3.566407 3.566406-3.566407h23.144531c1.972656 0 3.570313 1.597657 3.570313 3.566407v28.191406c0 1.972656-1.597657 3.570313-3.570313 3.570313zm0 0" fill="#a4c9ff"/><path d="m441.78125 351.023438h-23.148438c-1.972656 0-3.566406-1.597657-3.566406-3.570313v-28.191406c0-1.972657 1.597656-3.566407 3.566406-3.566407h23.148438c1.972656 0 3.566406 1.597657 3.566406 3.566407v28.191406c.003906 1.972656-1.59375 3.570313-3.566406 3.570313zm0 0" fill="#a4c9ff"/><path d="m71.652344 351.023438h-23.144532c-1.972656 0-3.566406-1.597657-3.566406-3.570313v-28.191406c0-1.972657 1.597656-3.566407 3.566406-3.566407h23.144532c1.972656 0 3.570312 1.597657 3.570312 3.566407v28.191406c0 1.972656-1.597656 3.570313-3.570312 3.570313zm0 0" fill="#a4c9ff"/><path d="m128.855469 351.023438h-23.144531c-1.972657 0-3.570313-1.597657-3.570313-3.570313v-28.191406c0-1.972657 1.597656-3.566407 3.570313-3.566407h23.144531c1.972656 0 3.570312 1.597657 3.570312 3.566407v28.191406c0 1.972656-1.601562 3.570313-3.570312 3.570313zm0 0" fill="#a4c9ff"/><path d="m288.214844 194.359375c0 24.5625-19.910156 44.476563-44.472656 44.476563s-44.472657-19.914063-44.472657-44.476563 19.910157-44.472656 44.472657-44.472656 44.472656 19.910156 44.472656 44.472656zm0 0" fill="#6bdddd"/><path d="m266.492188 200.359375h-22.75c-3.3125 0-6-2.683594-6-6v-29.816406c0-3.3125 2.6875-6 6-6s6 2.6875 6 6v23.816406h16.75c3.3125 0 6 2.6875 6 6s-2.6875 6-6 6zm0 0" fill="#ffea92"/><path d="m243.78125 62.5625c-2.207031 0-4-1.792969-4-4v-54.253906c0-2.207032 1.792969-4 4-4s4 1.792968 4 4v54.253906c0 2.207031-1.789062 4-4 4zm0 0" fill="#3762cc"/><path d="m384.578125 295.691406h-23.144531c-1.972656 0-3.566406-1.597656-3.566406-3.566406v-28.191406c0-1.972656 1.597656-3.570313 3.566406-3.570313h23.144531c1.972656 0 3.570313 1.601563 3.570313 3.570313v28.191406c0 1.96875-1.597657 3.566406-3.570313 3.566406zm0 0" fill="#a4c9ff"/><path d="m441.78125 295.691406h-23.148438c-1.972656 0-3.566406-1.597656-3.566406-3.566406v-28.191406c0-1.972656 1.597656-3.570313 3.566406-3.570313h23.148438c1.972656 0 3.566406 1.601563 3.566406 3.570313v28.191406c.003906 1.96875-1.59375 3.566406-3.566406 3.566406zm0 0" fill="#a4c9ff"/><path d="m71.652344 295.691406h-23.144532c-1.972656 0-3.566406-1.597656-3.566406-3.566406v-28.191406c0-1.972656 1.597656-3.570313 3.566406-3.570313h23.144532c1.972656 0 3.570312 1.601563 3.570312 3.570313v28.191406c0 1.96875-1.597656 3.566406-3.570312 3.566406zm0 0" fill="#a4c9ff"/><path d="m128.855469 295.691406h-23.144531c-1.972657 0-3.570313-1.597656-3.570313-3.566406v-28.191406c0-1.972656 1.597656-3.570313 3.570313-3.570313h23.144531c1.972656 0 3.570312 1.601563 3.570312 3.570313v28.191406c0 1.96875-1.601562 3.566406-3.570312 3.566406zm0 0" fill="#a4c9ff"/><path d="m351.980469 183.480469c-2.726563 0-5.460938-.882813-7.710938-2.671875l-22.917969-18.207032s-.003906-.003906-.003906-.003906l-74.859375-59.609375c-1.617187-1.289062-3.875-1.289062-5.496093 0l-97.777344 77.820313c-4.785156 3.800781-11.753906 3.515625-16.210938-.664063l-10.121094-9.492187c-2.632812-2.46875-4.058593-5.957032-3.914062-9.5625.148438-3.605469 1.851562-6.960938 4.679688-9.207032l118.371093-94.097656c4.546875-3.613281 10.898438-3.613281 15.445313 0l118.371094 94.097656c2.824218 2.246094 4.53125 5.601563 4.679687 9.207032.144531 3.605468-1.28125 7.089844-3.914063 9.558594l-10.121093 9.492187c-2.359375 2.21875-5.425781 3.339844-8.5 3.339844zm-25.65625-27.144531 22.921875 18.210937c1.703125 1.351563 4.179687 1.25 5.765625-.238281l10.121093-9.492188c.949219-.890625 1.441407-2.09375 1.390626-3.398437-.054688-1.300781-.644532-2.464844-1.664063-3.273438l-118.371094-94.089843c-1.617187-1.289063-3.875-1.289063-5.492187 0l-118.367188 94.089843c-1.019531.808594-1.609375 1.972657-1.664062 3.273438-.054688 1.300781.4375 2.507812 1.390625 3.398437l10.117187 9.492188c1.585938 1.488281 4.0625 1.585937 5.761719.238281l22.925781-18.210937 74.847656-59.601563c4.550782-3.628906 10.914063-3.628906 15.464844 0zm0 0" fill="#3762cc"/><path d="m332.066406 390.550781h-176.652344c-2.207031 0-4-1.792969-4-4v-220.5c0-1.222656.558594-2.375 1.515626-3.132812l8.234374-6.542969 74.847657-59.605469c4.550781-3.621093 10.910156-3.625 15.460937 0l83.082032 66.148438c.957031.757812 1.511718 1.910156 1.511718 3.132812v220.5c0 2.210938-1.789062 4-4 4zm-172.652344-8h168.652344v-214.570312l-6.714844-5.335938s-.003906-.003906-.003906-.003906l-74.859375-59.613281c-1.617187-1.285156-3.875-1.285156-5.496093 0l-81.578126 64.953125zm0 0" fill="#3762cc"/><path d="m243.742188 290.097656h54.960937v61.121094h-54.960937zm0 0" fill="#a4c9ff"/><path d="m188.785156 290.097656h54.957032v61.121094h-54.957032zm0 0" fill="#a4c9ff"/><path d="m302.628906 290.097656h-117.769531c-2.789063 0-5.046875-2.261718-5.046875-5.046875v-8.972656c0-2.789063 2.257812-5.050781 5.046875-5.050781h117.769531c2.785156 0 5.046875 2.261718 5.046875 5.050781v8.972656c0 2.785157-2.261719 5.046875-5.046875 5.046875zm0 0" fill="#6bdddd"/><path d="m298.703125 355.222656h-54.960937c-2.207032 0-4-1.792968-4-4v-61.125c0-2.207031 1.792968-4 4-4h54.960937c2.207031 0 4 1.792969 4 4v61.125c0 2.207032-1.792969 4-4 4zm-50.960937-8h46.960937v-53.125h-46.960937zm0 0" fill="#3762cc"/><path d="m243.742188 355.222656h-54.957032c-2.207031 0-4-1.792968-4-4v-61.125c0-2.207031 1.792969-4 4-4h54.957032c2.210937 0 4 1.792969 4 4v61.125c0 2.207032-1.789063 4-4 4zm-50.957032-8h46.957032v-53.125h-46.957032zm0 0" fill="#3762cc"/><path d="m302.628906 294.097656h-117.769531c-4.988281 0-9.046875-4.058594-9.046875-9.046875v-8.972656c0-4.988281 4.058594-9.046875 9.046875-9.046875h117.769531c4.988282 0 9.046875 4.058594 9.046875 9.046875v8.972656c0 4.988281-4.058593 9.046875-9.046875 9.046875zm-117.769531-19.066406c-.578125 0-1.046875.46875-1.046875 1.046875v8.972656c0 .578125.46875 1.046875 1.046875 1.046875h117.769531c.578125 0 1.046875-.46875 1.046875-1.046875v-8.972656c0-.578125-.472656-1.046875-1.046875-1.046875zm0 0" fill="#3762cc"/><path d="m353.941406 386.550781h-220.394531v-11.664062c0-3.316407 2.683594-6 6-6h208.394531c3.3125 0 6 2.683593 6 6zm0 0" fill="#ffea92"/><path d="m344.6875 368.886719h-201.890625v-11.667969c0-3.3125 2.6875-6 6-6h189.890625c3.3125 0 6 2.6875 6 6zm0 0" fill="#ffea92"/><g fill="#3762cc"><path d="m353.941406 390.550781h-220.394531c-2.207031 0-4-1.792969-4-4v-11.664062c0-5.515625 4.484375-10 10-10h208.394531c5.511719 0 10 4.484375 10 10v11.664062c0 2.210938-1.792968 4-4 4zm-216.394531-8h212.394531v-7.664062c0-1.105469-.898437-2-2-2h-208.394531c-1.101563 0-2 .894531-2 2zm0 0"/><path d="m344.6875 372.886719h-201.890625c-2.207031 0-4-1.792969-4-4v-11.664063c0-5.515625 4.488281-10 10-10h189.890625c5.511719 0 10 4.484375 10 10v11.664063c0 2.207031-1.792969 4-4 4zm-197.890625-8h193.890625v-7.664063c0-1.105468-.898438-2-2-2h-189.890625c-1.101563 0-2 .894532-2 2zm0 0"/><path d="m384.578125 355.023438h-23.144531c-4.171875 0-7.570313-3.394532-7.570313-7.570313v-28.191406c0-4.175781 3.398438-7.570313 7.570313-7.570313h23.144531c4.175781 0 7.570313 3.394532 7.570313 7.570313v28.191406c0 4.175781-3.394532 7.570313-7.570313 7.570313zm-22.714844-8h22.285157v-27.332032h-22.285157zm0 0"/><path d="m441.78125 355.023438h-23.148438c-4.171874 0-7.566406-3.394532-7.566406-7.570313v-28.191406c0-4.175781 3.394532-7.570313 7.566406-7.570313h23.148438c4.171875 0 7.570312 3.394532 7.570312 7.570313v28.191406c0 4.175781-3.398437 7.570313-7.570312 7.570313zm-22.714844-8h22.285156v-27.332032h-22.285156zm0 0"/><path d="m71.652344 355.023438h-23.144532c-4.171874 0-7.570312-3.394532-7.570312-7.570313v-28.191406c0-4.175781 3.398438-7.570313 7.570312-7.570313h23.144532c4.171875 0 7.570312 3.394532 7.570312 7.570313v28.191406c0 4.175781-3.398437 7.570313-7.570312 7.570313zm-22.714844-8h22.285156v-27.332032h-22.285156zm0 0"/><path d="m128.855469 355.023438h-23.144531c-4.175782 0-7.570313-3.394532-7.570313-7.570313v-28.191406c0-4.175781 3.394531-7.570313 7.570313-7.570313h23.144531c4.171875 0 7.570312 3.394532 7.570312 7.570313v28.191406c0 4.175781-3.398437 7.570313-7.570312 7.570313zm-22.714844-8h22.285156v-27.332032h-22.285156zm0 0"/><path d="m384.578125 299.691406h-23.144531c-4.171875 0-7.570313-3.394531-7.570313-7.566406v-28.191406c0-4.175782 3.398438-7.570313 7.570313-7.570313h23.144531c4.175781 0 7.570313 3.394531 7.570313 7.570313v28.191406c0 4.171875-3.394532 7.566406-7.570313 7.566406zm-22.714844-8h22.285157v-27.328125h-22.285157zm0 0"/><path d="m441.78125 299.691406h-23.148438c-4.171874 0-7.566406-3.394531-7.566406-7.566406v-28.191406c0-4.175782 3.394532-7.570313 7.566406-7.570313h23.148438c4.171875 0 7.570312 3.394531 7.570312 7.570313v28.191406c0 4.171875-3.398437 7.566406-7.570312 7.566406zm-22.714844-8h22.285156v-27.328125h-22.285156zm0 0"/><path d="m71.652344 299.691406h-23.144532c-4.171874 0-7.570312-3.394531-7.570312-7.566406v-28.191406c0-4.175782 3.398438-7.570313 7.570312-7.570313h23.144532c4.171875 0 7.570312 3.394531 7.570312 7.570313v28.191406c0 4.171875-3.398437 7.566406-7.570312 7.566406zm-22.714844-8h22.285156v-27.328125h-22.285156zm0 0"/><path d="m128.855469 299.691406h-23.144531c-4.175782 0-7.570313-3.394531-7.570313-7.566406v-28.191406c0-4.175782 3.394531-7.570313 7.570313-7.570313h23.144531c4.171875 0 7.570312 3.394531 7.570312 7.570313v28.191406c0 4.171875-3.398437 7.566406-7.570312 7.566406zm-22.714844-8h22.285156v-27.328125h-22.285156zm0 0"/><path d="m243.742188 242.835938c-26.726563 0-48.472657-21.746094-48.472657-48.476563 0-26.726563 21.746094-48.472656 48.472657-48.472656 26.726562 0 48.472656 21.746093 48.472656 48.472656 0 26.730469-21.742188 48.476563-48.472656 48.476563zm0-88.949219c-22.316407 0-40.472657 18.15625-40.472657 40.472656 0 22.320313 18.15625 40.476563 40.472657 40.476563 22.316406 0 40.472656-18.160157 40.472656-40.476563 0-22.3125-18.15625-40.472656-40.472656-40.472656zm0 0"/><path d="m294.660156 39.101562h-50.796875c-2.210937 0-4-1.792968-4-4v-30.792968c0-2.207032 1.789063-4 4-4h50.796875c4.410156 0 8 3.589844 8 8v22.792968c0 4.410157-3.589844 8-8 8zm-46.796875-8h46.800781l-.003906-22.792968h-46.796875zm0 0"/></g><path d="m478.476562 460.894531h-227.714843c-3.390625 0-6.140625-2.75-6.140625-6.144531v-43.871094c0-3.390625 2.75-6.140625 6.140625-6.140625h227.714843c3.390626 0 6.140626 2.75 6.140626 6.140625v43.871094c.003906 3.394531-2.746094 6.144531-6.140626 6.144531zm0 0" fill="#f9a7a7"/><path d="m260.15625 404.734375h16.796875v56.160156h-16.796875zm0 0" fill="#ffea92"/><path d="m478.476562 464.894531h-227.714843c-5.589844 0-10.140625-4.550781-10.140625-10.144531v-43.871094c0-5.59375 4.550781-10.144531 10.140625-10.144531h227.714843c5.589844 0 10.140626 4.550781 10.140626 10.144531v43.871094c.003906 5.59375-4.546876 10.144531-10.140626 10.144531zm-227.714843-56.160156c-1.183594 0-2.140625.960937-2.140625 2.144531v43.871094c0 1.183594.957031 2.144531 2.140625 2.144531h227.714843c1.179688 0 2.140626-.960937 2.140626-2.144531v-43.871094c0-1.183594-.960938-2.144531-2.140626-2.144531zm0 0" fill="#3762cc"/><path d="m446.191406 441.480469h-144.292968c-2.828126 0-5.117188-2.292969-5.117188-5.117188v-7.097656c0-2.828125 2.289062-5.117187 5.117188-5.117187h144.292968c2.828125 0 5.117188 2.292968 5.117188 5.117187v7.097656c0 2.824219-2.289063 5.117188-5.117188 5.117188zm0 0" fill="#6bdddd"/><path d="m479.28125 419.1875v-60.742188c0-2.835937-2.292969-5.132812-5.125-5.132812-2.828125 0-5.121094 2.296875-5.121094 5.132812v60.742188c-3.171875 1.792969-5.339844 5.15625-5.339844 9.058594v16.523437c0 1.414063 1.144532 2.558594 2.558594 2.558594h15.804688c1.414062 0 2.558594-1.144531 2.558594-2.558594v-16.523437c.003906-3.902344-2.164063-7.265625-5.335938-9.058594zm0 0" fill="#ffea94"/><path d="m422.65625 368.074219c-14.164062-2.566407-67.214844-10.707031-120.136719-.023438-2.101562.425781-3.464843 1.484375-3.464843 2.640625v26.464844c0 1.203125 1.453124 2.273438 3.660156 2.671875 14.164062 2.5625 67.21875 10.707031 120.140625.023437 2.101562-.425781 3.464843-1.484374 3.464843-2.640624v-26.464844c-.003906-1.203125-1.453124-2.273438-3.664062-2.671875zm0 0" fill="#4671c6"/><path d="m365.328125 409.222656c-29.78125 0-53.953125-3.757812-63.324219-5.457031-4.222656-.765625-6.949218-3.359375-6.949218-6.605469v-26.414062c0-3.222656 2.621093-5.800782 6.671874-6.617188 53.335938-10.765625 106.589844-2.714844 121.644532.007813 4.21875.761719 6.945312 3.355469 6.945312 6.605469v26.414062c0 3.222656-2.617187 5.796875-6.671875 6.617188-20.128906 4.0625-40.257812 5.449218-58.316406 5.449218zm-62.273437-13.410156c.109374.027344.234374.054688.375.082031 14.699218 2.660157 66.699218 10.519531 118.636718.039063.089844-.019532.175782-.039063.253906-.058594v-23.78125c-.109374-.03125-.234374-.058594-.375-.085938-14.699218-2.65625-66.6875-10.519531-118.636718-.035156-.089844.015625-.175782.039063-.253906.058594zm0 0" fill="#3762cc"/><path d="m475.363281 352.710938-106.820312-42.851563c-2.859375-1.144531-6.039063-1.144531-8.898438 0l-106.789062 42.839844c-5.109375 2.050781-5.015625 9.464843.148437 11.375l46.050782 17.066406v-10.449219c0-1.15625 1.363281-2.214844 3.464843-2.640625 52.921875-10.683593 105.972657-2.539062 120.136719.023438 2.210938.398437 3.664062 1.46875 3.664062 2.671875v11.4375l48.894532-18.121094c5.152344-1.90625 5.246094-9.304688.148437-11.351562zm0 0" fill="#4671c6"/><path d="m426.316406 386.183594c-.804687 0-1.601562-.246094-2.285156-.714844-1.074219-.75-1.714844-1.976562-1.714844-3.285156v-10.089844c-.109375-.03125-.234375-.058594-.371094-.085938-14.703124-2.65625-66.699218-10.519531-118.636718-.035156-.09375.015625-.175782.039063-.253906.058594v9.109375c0 1.308594-.640626 2.535156-1.714844 3.285156-1.078125.746094-2.449219.921875-3.675782.46875l-46.050781-17.066406c-3.914062-1.449219-6.476562-5.113281-6.535156-9.332031-.054687-4.222656 2.410156-7.953125 6.289063-9.507813l106.789062-42.839843c3.828125-1.535157 8.046875-1.535157 11.875 0l106.820312 42.851562c3.871094 1.550781 6.339844 5.28125 6.28125 9.496094-.054687 4.214844-2.617187 7.871094-6.523437 9.320312l-48.898437 18.117188c-.453126.167968-.921876.25-1.394532.25zm-66.273437-27.5c29.78125 0 53.957031 3.757812 63.328125 5.457031 4.222656.765625 6.949218 3.359375 6.949218 6.605469v5.691406l43.503907-16.121094c1.164062-.429687 1.300781-1.488281 1.308593-1.925781.003907-.4375-.105468-1.5-1.261718-1.964844l-106.820313-42.851562c-1.90625-.765625-4.007812-.765625-5.917969 0l-106.789062 42.839843c-1.160156.464844-1.273438 1.535157-1.269531 1.976563.007812.4375.148437 1.503906 1.316406 1.9375l40.664063 15.066406v-4.644531c0-3.226562 2.621093-5.800781 6.671874-6.617188 20.132813-4.066406 40.257813-5.449218 58.316407-5.449218zm0 0" fill="#3762cc"/></svg>