<svg height="474pt" viewBox="-38 0 474 474.336" width="474pt" xmlns="http://www.w3.org/2000/svg"><path d="m348.824219 420h-299.3125c-13.445313 0-24.34375-10.898438-24.34375-24.34375v-367.3125c0-13.445312 10.898437-24.34375 24.34375-24.34375h299.316406c13.441406 0 24.339844 10.898438 24.339844 24.34375v367.316406c0 13.441406-10.898438 24.339844-24.34375 24.339844zm0 0" fill="#e0ebfc"/><path d="m348.824219 424h-299.3125c-15.628907 0-28.34375-12.714844-28.34375-28.34375v-367.3125c0-15.628906 12.714843-28.34375 28.34375-28.34375h299.3125c15.628906 0 28.34375 12.714844 28.34375 28.34375v367.3125c0 15.628906-12.714844 28.34375-28.34375 28.34375zm-299.3125-416c-11.21875 0-20.34375 9.125-20.34375 20.34375v367.3125c0 11.21875 9.125 20.34375 20.34375 20.34375h299.3125c11.21875 0 20.34375-9.125 20.34375-20.34375v-367.3125c0-11.21875-9.125-20.34375-20.34375-20.34375zm0 0" fill="#3762cc"/><path d="m197.394531 210.460938h-135c-6.625 0-12-5.371094-12-12v-157.460938c0-6.628906 5.375-12 12-12h135c6.628907 0 12 5.371094 12 12v157.460938c0 6.625-5.371093 12-12 12zm0 0" fill="#ffea92"/><path d="m155.140625 168.390625h-7.003906c-.015625 0-.027344-.003906-.042969-.003906l-.003906.003906h-46.066406c-12.171876 0-22.039063 9.867187-22.039063 22.039063v20.003906h97.195313v-20.003906c0-12.171876-9.867188-22.039063-22.039063-22.039063zm0 0" fill="#e0ebfc"/><path d="m128.582031 163.320312c-7.058593 0-13.722656-1.679687-19.609375-4.65625v8.902344c0 .3125.046875.617188.109375.914063h.007813c.0625.300781.15625.589843.28125.871093.015625.035157.03125.074219.046875.109376.054687.113281.113281.226562.175781.335937.0625.105469.132812.207031.203125.308594.039063.050781.074219.109375.113281.164062l2.789063 3.539063c2.773437 3.527344 6.617187 6.078125 10.972656 7.097656.585937.136719 1.191406.257812 1.816406.351562 7.070313 1.058594 14.140625-1.953124 18.535157-7.625l4.0625-5.238281c.054687-.277343.089843-.566406.089843-.851562v-8.875c-5.878906 2.976562-12.539062 4.652343-19.59375 4.652343zm0 0" fill="#f9cfcf"/><path d="m177.179688 214.4375h-97.195313c-2.207031 0-4-1.792969-4-4v-20.007812c0-14.359376 11.679687-26.039063 26.039063-26.039063h2.953124v-5.726563c0-1.390624.71875-2.679687 1.902344-3.40625 1.183594-.730468 2.660156-.792968 3.902344-.164062 5.542969 2.804688 11.535156 4.226562 17.800781 4.226562s12.253907-1.421874 17.792969-4.21875c1.238281-.628906 2.714844-.570312 3.898438.160157 1.183593.726562 1.90625 2.019531 1.90625 3.410156v5.71875h2.960937c14.355469 0 26.039063 11.679687 26.039063 26.039063v20.007812c0 2.207031-1.792969 4-4 4zm-93.195313-8h89.195313v-16.007812c0-9.949219-8.089844-18.039063-18.039063-18.039063h-7.003906c-.074219 0-.144531 0-.21875-.003906-.800781-.035157-1.589844-.308594-2.25-.8125-1.210938-.925781-1.796875-2.457031-1.507813-3.953125l.007813-2.910156c-9.957031 3.46875-21.226563 3.46875-31.195313-.007813v2.863281c.238282 1.175782-.058594 2.414063-.816406 3.339844-.761719.929688-1.886719 1.484375-3.089844 1.484375h-7.042968c-9.949219 0-18.039063 8.089844-18.039063 18.035156zm0 0" fill="#3762cc"/><path d="m177.179688 201.480469v-11.050781c0-12.171876-9.867188-22.039063-22.035157-22.039063h-7.003906c-.015625 0-.03125-.003906-.046875-.003906v.003906h-1.984375l-8.183594 20.042969v22.003906h39.253907zm0 0" fill="#a4c9ff"/><path d="m111.054688 168.390625h-9.03125c-12.171876 0-22.039063 9.867187-22.039063 22.039063v20.003906h39.253906v-22.003906zm0 0" fill="#a4c9ff"/><path d="m172.066406 104.210938c-.09375 0-.183594.011718-.273437.011718v-4.042968c0-23.652344-19.347657-42.824219-43.210938-42.824219s-43.210937 19.171875-43.210937 42.824219v4.042968c-.089844 0-.179688-.011718-.273438-.011718-7.28125 0-13.183594 5.847656-13.183594 13.0625 0 7.214843 5.902344 13.066406 13.183594 13.066406.476563 0 .949219-.03125 1.414063-.078125 4.460937 18.941406 21.59375 33.058593 42.070312 33.058593 20.472657 0 37.609375-14.117187 42.070313-33.058593.464844.046875.9375.078125 1.414062.078125 7.28125 0 13.179688-5.851563 13.179688-13.066406 0-7.214844-5.898438-13.0625-13.179688-13.0625zm0 0" fill="#f9cfcf"/><path d="m107.109375 124.070312c-2.5 0-4.535156-2.035156-4.535156-4.535156v-7.5625c0-2.5 2.035156-4.535156 4.535156-4.535156s4.535156 2.035156 4.535156 4.535156v7.5625c0 2.5-2.035156 4.535156-4.535156 4.535156zm0 0" fill="#3762cc"/><path d="m149.851562 124.070312c-2.503906 0-4.539062-2.035156-4.539062-4.535156v-7.5625c0-2.5 2.035156-4.535156 4.539062-4.535156 2.5 0 4.535157 2.035156 4.535157 4.535156v7.5625c0 2.5-2.035157 4.535156-4.535157 4.535156zm0 0" fill="#3762cc"/><path d="m177.179688 214.4375h-39.253907c-2.210937 0-4-1.792969-4-4v-22.003906c0-.519532.101563-1.035156.292969-1.511719l8.183594-20.042969c.617187-1.503906 2.078125-2.488281 3.707031-2.488281h9.035156c14.359375 0 26.039063 11.679687 26.039063 26.039063v20.007812c-.003906 2.207031-1.796875 4-4.003906 4zm-35.253907-8h31.253907v-16.007812c0-9.945313-8.089844-18.039063-18.039063-18.039063h-6.347656l-6.871094 16.824219v17.222656zm0 0" fill="#3762cc"/><path d="m119.234375 214.4375h-39.25c-2.207031 0-4-1.792969-4-4v-20.007812c0-14.355469 11.679687-26.039063 26.039063-26.039063h9.03125c1.625 0 3.085937.984375 3.703124 2.488281l8.183594 20.042969c.195313.476563.296875.992187.296875 1.511719v22.003906c-.003906 2.207031-1.792969 4-4.003906 4zm-35.25-8h31.25v-17.222656l-6.871094-16.824219h-6.34375c-9.945312 0-18.039062 8.09375-18.039062 18.039063v16.007812zm0 0" fill="#3762cc"/><path d="m148.179688 163.320312-10.253907 25.109376 8.902344 6.898437c.8125.628906 1.992187.328125 2.40625-.609375l11.304687-25.660156-1.628906-3.824219c-.496094-1.160156-1.632812-1.914063-2.894531-1.914063zm0 0" fill="#a4c9ff"/><path d="m147.785156 199.660156c-1.21875 0-2.410156-.398437-3.402344-1.167968l-8.90625-6.898438c-1.421874-1.101562-1.933593-3.011719-1.253906-4.671875l10.253906-25.113281c.617188-1.503906 2.078126-2.488282 3.707032-2.488282h7.835937c2.871094 0 5.453125 1.707032 6.574219 4.347657l1.628906 3.824219c.433594 1.019531.425782 2.167968-.019531 3.183593l-11.308594 25.660157c-.695312 1.578124-2.050781 2.726562-3.722656 3.152343-.460937.117188-.929687.171875-1.386719.171875zm-5.007812-12.53125 4.046875 3.136719 9.359375-21.234375-.730469-1.710938h-4.585937zm0 0" fill="#3762cc"/><path d="m108.980469 163.320312 10.253906 25.109376-8.90625 6.898437c-.808594.628906-1.988281.328125-2.402344-.609375l-11.304687-25.660156 1.628906-3.824219c.492188-1.160156 1.632812-1.914063 2.894531-1.914063zm0 0" fill="#a4c9ff"/><path d="m109.378906 199.660156c-.460937 0-.925781-.054687-1.382812-.171875-1.675782-.421875-3.035156-1.574219-3.730469-3.15625l-11.304687-25.660156c-.449219-1.011719-.453126-2.164063-.019532-3.183594l1.628906-3.824219c1.125-2.636718 3.707032-4.34375 6.574219-4.34375h7.835938c1.628906 0 3.089843.984376 3.707031 2.488282l10.253906 25.109375c.679688 1.660156.164063 3.574219-1.253906 4.675781l-8.90625 6.894531c-.992188.773438-2.183594 1.171875-3.402344 1.171875zm-8.402344-30.625 9.359376 21.234375 4.046874-3.136719-8.089843-19.808593h-4.585938zm0 0" fill="#3762cc"/><path d="m128.582031 167.320312c-20.972656 0-39.09375-13.4375-45.125-33.058593-8.707031-.824219-15.542969-8.128907-15.542969-16.984375 0-8.140625 5.769532-14.96875 13.457032-16.660156v-.4375c0-25.816407 21.179687-46.820313 47.210937-46.820313s47.210938 21.003906 47.210938 46.820313v.4375c7.6875 1.691406 13.453125 8.519531 13.453125 16.660156 0 8.855468-6.832032 16.160156-15.535156 16.984375-6.035157 19.617187-24.15625 33.058593-45.128907 33.058593zm-42.0625-41.058593c1.835938 0 3.457031 1.261719 3.886719 3.082031 4.15625 17.648438 19.855469 29.976562 38.175781 29.976562 18.324219 0 34.023438-12.328124 38.175781-29.976562.460938-1.960938 2.34375-3.273438 4.3125-3.0625.328126.035156.65625.058594.996094.058594 5.0625 0 9.179688-4.066406 9.179688-9.066406 0-4.972657-4.074219-9.023438-9.105469-9.0625-.15625.007812-.28125.011718-.347656.011718-1.046875 0-2.050781-.410156-2.800781-1.140625-.765626-.753906-1.199219-1.785156-1.199219-2.859375v-4.042968c0-21.40625-17.589844-38.824219-39.210938-38.824219-21.621093 0-39.210937 17.417969-39.210937 38.824219v4.042968c0 1.078125-.433594 2.105469-1.199219 2.859375-.773437.75-1.730469 1.164063-2.886719 1.140625-.0625 0-.253906-.011718-.320312-.015625-4.929688 0-9.046875 4.070313-9.046875 9.066407 0 5 4.121093 9.066406 9.183593 9.066406.335938 0 .667969-.023438.996094-.058594.136719-.011719.277344-.019531.421875-.019531zm0 0" fill="#3762cc"/><path d="m180.074219 96.949219h-14.574219c-8.8125 0-15.953125-7.144531-15.953125-15.957031v-22.136719c0-5.289063 4.285156-9.574219 9.570313-9.574219h4.519531c11.9375 0 21.613281 9.675781 21.613281 21.613281v20.878907c-.003906 2.859374-2.316406 5.175781-5.175781 5.175781zm0 0" fill="#4671c6"/><path d="m140.101562 49.28125h-46.515624c-3.617188-.523438-16.679688-2.9375-21.882813-10.894531-.695313-1.066407-2.449219-.773438-2.753906.4375-2.71875 10.796875-8.425781 40.492187 7.140625 53.082031l.164062-.375c3.542969 3.433594 8.320313 5.539062 13.582032 5.539062h39.246093c11.300781 0 20.460938-9.382812 20.460938-20.964843v-17.144531c0-5.347657-4.226563-9.679688-9.441407-9.679688zm0 0" fill="#4671c6"/><path d="m76.375 91.773438v15.605468c2.308594-1.972656 5.308594-3.171875 8.59375-3.171875.089844 0 .179688.011719.273438.015625v-4.046875c0-1.21875.058593-2.417969.164062-3.613281-3.441406-.785156-6.535156-2.46875-9.03125-4.789062zm0 0" fill="#4671c6"/><path d="m180.144531 96.949219h-8.449219c.082032 1.066406.125 2.140625.125 3.226562v4.046875c.089844-.003906.179688-.015625.273438-.015625 3.414062 0 6.515625 1.300781 8.855469 3.410157v-10.738282c-.261719.042969-.53125.070313-.804688.070313zm0 0" fill="#4671c6"/><g fill="#3762cc"><path d="m180.074219 100.949219h-14.574219c-11.003906 0-19.957031-8.953125-19.957031-19.957031v-22.136719c0-7.484375 6.089843-13.574219 13.574219-13.574219h4.515624c14.125 0 25.613282 11.488281 25.613282 25.613281v20.878907c0 5.058593-4.113282 9.175781-9.171875 9.175781zm-20.957031-47.667969c-3.070313 0-5.570313 2.5-5.570313 5.574219v22.140625c0 6.59375 5.363281 11.953125 11.957031 11.953125h14.570313c.648437 0 1.175781-.527344 1.175781-1.171875v-20.882813c0-9.710937-7.898438-17.613281-17.613281-17.613281zm0 0"/><path d="m129.082031 101.070312h-39.25c-5.441406 0-10.640625-1.875-14.851562-5.320312-.507813-.144531-.984375-.390625-1.40625-.734375-17.179688-13.890625-11.667969-44.609375-8.503907-57.167969.527344-2.089844 2.269532-3.675781 4.441407-4.039062 2.183593-.367188 4.355469.570312 5.539062 2.386718 4.222657 6.449219 15.867188 8.625 18.835938 9.085938h46.214843c7.414063 0 13.445313 6.132812 13.445313 13.675781v17.144531c-.003906 13.769532-10.976563 24.96875-24.464844 24.96875zm-51.730469-13.386718c.625.179687 1.207032.507812 1.6875.972656 2.9375 2.847656 6.769532 4.414062 10.792969 4.414062h39.25c9.078125 0 16.460938-7.609374 16.460938-16.964843v-17.144531c0-3.132813-2.441407-5.675782-5.445313-5.675782h-46.511718c-.195313 0-.382813-.015625-.574219-.042968-4.558594-.664063-14.625-2.75-21.253907-8.730469-2.308593 11.269531-4.96875 32.914062 5.59375 43.171875zm0 0"/><path d="m76.375 111.378906c-.570312 0-1.140625-.117187-1.675781-.367187-1.417969-.652344-2.324219-2.070313-2.324219-3.632813v-15.605468c0-1.59375.941406-3.035157 2.402344-3.667969 1.449218-.632813 3.152344-.34375 4.320312.738281 2.027344 1.886719 4.519532 3.207031 7.203125 3.824219 1.945313.445312 3.261719 2.257812 3.089844 4.246093-.101563 1.152344-.148437 2.21875-.148437 3.265626v4.042968c0 1.078125-.433594 2.105469-1.203126 2.859375-.769531.753907-1.835937 1.171875-2.882812 1.140625-.0625 0-.253906-.011718-.320312-.015625-2.0625 0-4.195313.789063-5.863282 2.214844-.742187.632813-1.667968.957031-2.597656.957031zm4-12.273437v1.730469c.285156-.078126.574219-.152344.867188-.214844v-.441406c0-.238282 0-.476563.003906-.714844-.292969-.117188-.585938-.238282-.871094-.359375zm0 0"/><path d="m180.949219 111.617188c-.96875 0-1.925781-.351563-2.675781-1.027344-1.707032-1.535156-3.898438-2.378906-6.179688-2.378906l-.1875.011718c-1.144531.019532-2.117188-.386718-2.882812-1.136718-.769532-.753907-1.203126-1.785157-1.203126-2.859376v-4.046874c0-.980469-.039062-1.953126-.117187-2.914063-.085937-1.113281.292969-2.210937 1.050781-3.03125.757813-.820313 1.820313-1.285156 2.9375-1.285156h8.449219c.0625 0 .121094-.011719.179687-.019531 1.152344-.1875 2.332032.144531 3.222657.90625.890625.761718 1.40625 1.871093 1.40625 3.042968v10.738282c0 1.578124-.929688 3.011718-2.375 3.652343-.523438.234375-1.074219.347657-1.625.347657zm0 0"/><path d="m113.007812 131.585938h-11.933593c-7.257813 0-13.160157-5.902344-13.160157-13.160157v-13.8125c0-1.660156 1.34375-3 3-3h32.257813c1.652344 0 3 1.339844 3 3v13.8125c0 7.257813-5.90625 13.160157-13.164063 13.160157zm-19.09375-23.972657v10.8125c0 3.949219 3.210938 7.160157 7.160157 7.160157h11.933593c3.949219 0 7.164063-3.210938 7.164063-7.160157v-10.8125zm0 0"/><path d="m156.226562 131.585938h-11.929687c-7.257813 0-13.164063-5.902344-13.164063-13.160157v-13.8125c0-1.660156 1.34375-3 3-3h32.253907c1.65625 0 3 1.339844 3 3v13.8125c0 7.257813-5.902344 13.160157-13.160157 13.160157zm-19.09375-23.972657v10.8125c0 3.949219 3.214844 7.160157 7.164063 7.160157h11.929687c3.949219 0 7.160157-3.210938 7.160157-7.160157v-10.8125zm0 0"/><path d="m134.132812 117.949219h-10.960937c-1.65625 0-3-1.339844-3-3 0-1.65625 1.34375-3 3-3h10.960937c1.65625 0 3 1.34375 3 3 0 1.660156-1.339843 3-3 3zm0 0"/></g><path d="m135.8125 136.699219h-14.460938c-.789062 0-1.429687.640625-1.429687 1.429687v3.570313c0 1.316406.5625 2.597656 1.605469 3.648437 1.175781 1.1875 2.882812 1.960938 4.761718 2.238282h4.582032c1.875-.277344 3.582031-1.050782 4.761718-2.238282 1.039063-1.050781 1.601563-2.332031 1.601563-3.648437v-3.570313c.003906-.789062-.632813-1.429687-1.421875-1.429687zm0 0" fill="#f9a7a7"/><path d="m130.875 149.585938h-4.582031c-.097657 0-.195313-.007813-.292969-.023438-2.347656-.347656-4.4375-1.34375-5.890625-2.808594-1.40625-1.417968-2.183594-3.214844-2.183594-5.058594v-3.570312c0-1.890625 1.539063-3.425781 3.425781-3.425781h14.460938c1.890625 0 3.425781 1.539062 3.425781 3.425781v3.570312c0 1.84375-.773437 3.640626-2.183593 5.0625-1.453126 1.460938-3.542969 2.460938-5.890626 2.804688-.097656.011719-.195312.023438-.289062.023438zm-4.429688-4h4.273438c1.4375-.238282 2.675781-.820313 3.496094-1.648438.671875-.675781 1.027344-1.453125 1.027344-2.242188v-2.996093h-13.3125v2.996093c0 .792969.351562 1.570313 1.023437 2.242188.820313.828125 2.054687 1.410156 3.492187 1.648438zm9.367188-6.886719h.019531zm0 0" fill="#3762cc"/><path d="m340.78125 57.730469h-98.386719c-5.519531 0-10-4.476563-10-10 0-5.523438 4.480469-10 10-10h98.386719c5.519531 0 10 4.476562 10 10 0 5.523437-4.480469 10-10 10zm0 0" fill="#b9befc"/><path d="m340.78125 105.730469h-98.386719c-5.519531 0-10-4.476563-10-10 0-5.523438 4.480469-10 10-10h98.386719c5.519531 0 10 4.476562 10 10 0 5.523437-4.480469 10-10 10zm0 0" fill="#b9befc"/><path d="m340.78125 153.730469h-98.386719c-5.519531 0-10-4.476563-10-10 0-5.523438 4.480469-10 10-10h98.386719c5.519531 0 10 4.476562 10 10 0 5.523437-4.480469 10-10 10zm0 0" fill="#b9befc"/><path d="m340.78125 201.730469h-98.386719c-5.519531 0-10-4.476563-10-10 0-5.523438 4.480469-10 10-10h98.386719c5.519531 0 10 4.476562 10 10 0 5.523437-4.480469 10-10 10zm0 0" fill="#b9befc"/><path d="m340.78125 261.730469h-280.386719c-5.519531 0-10-4.476563-10-10 0-5.523438 4.480469-10 10-10h280.386719c5.519531 0 10 4.476562 10 10 0 5.523437-4.480469 10-10 10zm0 0" fill="#b9befc"/><path d="m382.46875 264.160156h-176.714844c-5.4375 0-10.480468-2.773437-13.3125-7.320312l-40.515625-65.015625c-2.125-3.410157-5.90625-5.488281-9.984375-5.488281h-126.074218c-6.460938 0-11.699219 5.128906-11.699219 11.460937v261.074219c0 6.332031 5.238281 11.464844 11.699219 11.464844h366.601562c6.460938 0 11.699219-5.132813 11.699219-11.464844v-183.25c0-6.328125-5.238281-11.460938-11.699219-11.460938zm0 0" fill="#6bdddd"/><path d="m127.976562 355.109375v52.414063c0 2.386718 1.558594 4.507812 3.929688 5.300781 15.191406 5.085937 72.097656 21.246093 128.863281.046875 2.25-.839844 3.710938-2.945313 3.710938-5.242188v-52.515625h-136.503907zm0 0" fill="#4671c6"/><path d="m199.066406 427.527344c-32.191406 0-58.304687-7.515625-68.433594-10.90625-3.980468-1.332032-6.65625-4.988282-6.65625-9.09375v-52.414063c0-2.210937 1.792969-4 4-4h136.503907c2.207031 0 4 1.789063 4 4v52.515625c0 3.96875-2.539063 7.582032-6.316407 8.992188-21.785156 8.136718-43.5625 10.90625-63.097656 10.90625zm-67.089844-68.414063v48.414063c0 .671875.46875 1.265625 1.199219 1.507812 15.636719 5.238282 70.960938 20.714844 126.191407.089844.667968-.25 1.113281-.847656 1.113281-1.496094v-48.515625zm0 0" fill="#3762cc"/><path d="m191.691406 299.691406-108.957031 42.921875c-5.214844 2.050781-5.117187 9.480469.148437 11.398438l109.109376 39.707031c2.738281.996094 5.734374.996094 8.472656 0l109.144531-39.71875c5.253906-1.910156 5.351563-9.324219.148437-11.375l-108.988281-42.933594c-2.917969-1.152344-6.160156-1.152344-9.078125 0zm0 0" fill="#4671c6"/><path d="m196.230469 398.460938c-1.902344 0-3.796875-.332032-5.605469-.988282l-109.109375-39.703125c-3.976563-1.449219-6.582031-5.121093-6.636719-9.355469-.054687-4.234374 2.453125-7.972656 6.390625-9.527343l108.953125-42.921875c3.875-1.523438 8.140625-1.523438 12.011719 0l108.988281 42.933594c3.929688 1.550781 6.433594 5.285156 6.378906 9.515624-.054687 4.230469-2.65625 7.894532-6.628906 9.34375l-109.140625 39.714844c-1.804687.660156-3.707031.988282-5.601562.988282zm-3.074219-95.050782-108.957031 42.925782c-1.210938.472656-1.328125 1.539062-1.320313 1.976562.003906.433594.148438 1.496094 1.371094 1.941406l109.113281 39.707032c1.847657.671874 3.882813.671874 5.734375 0l109.140625-39.71875c1.214844-.441407 1.359375-1.496094 1.367188-1.929688.003906-.429688-.113281-1.492188-1.316407-1.960938l-108.988281-42.9375c-1.980469-.785156-4.164062-.785156-6.144531-.003906zm0 0" fill="#3762cc"/><path d="m313.605469 348.074219c.308593-3.09375-1.984375-5.625-5.09375-5.625h-106.792969c-2.9375 0-5.617188 2.113281-5.910156 5.039062-.339844 3.367188 2.296875 6.203125 5.589844 6.203125h98.242187c1.503906 0 2.726563 1.21875 2.726563 2.722656v62.09375c0 2.941407 2.113281 5.621094 5.039062 5.917969 3.363281.335938 6.199219-2.304687 6.199219-5.605469v-70.734374c0-.007813 0-.007813 0-.011719zm0 0" fill="#ffea92"/><path d="m316.652344 446.023438h-17.335938c-1.546875 0-2.804687-1.257813-2.804687-2.804688v-18.125c0-6.324219 5.128906-11.453125 11.453125-11.453125h.042968c6.324219 0 11.453126 5.128906 11.453126 11.453125v18.125c-.003907 1.546875-1.257813 2.804688-2.808594 2.804688zm0 0" fill="#ffea92"/><path d="m382.46875 474.335938h-366.601562c-8.65625 0-15.699219-6.9375-15.699219-15.460938v-261.078125c0-8.523437 7.042969-15.460937 15.699219-15.460937h126.070312c5.417969 0 10.546875 2.824218 13.378906 7.375l40.515625 65.015624c2.089844 3.351563 5.890625 5.433594 9.921875 5.433594h176.714844c8.65625 0 15.699219 6.9375 15.699219 15.460938v183.253906c0 8.523438-7.042969 15.460938-15.699219 15.460938zm-366.601562-284c-4.246094 0-7.699219 3.347656-7.699219 7.460937v261.078125c0 4.113281 3.453125 7.460938 7.699219 7.460938h366.601562c4.246094 0 7.699219-3.347657 7.699219-7.460938v-183.253906c0-4.113282-3.453125-7.460938-7.699219-7.460938h-176.714844c-6.769531 0-13.171875-3.527344-16.710937-9.203125l-40.511719-65.015625c-1.386719-2.222656-3.914062-3.605468-6.59375-3.605468zm0 0" fill="#3762cc"/></svg>