<svg height="477pt" viewBox="0 -1 477.054 477" width="477pt" xmlns="http://www.w3.org/2000/svg"><path d="m440.140625 374.332031h-403.222656c-18.179688 0-32.914063-14.738281-32.914063-32.914062v-304.476563c0-18.179687 14.734375-32.914062 32.914063-32.914062h403.222656c18.179687 0 32.917969 14.738281 32.917969 32.914062v304.476563c-.003906 18.175781-14.738282 32.914062-32.917969 32.914062zm0 0" fill="#6bdddd"/><path d="m4 299.433594v41.984375c0 18.175781 14.738281 32.914062 32.914062 32.914062h403.226563c18.179687 0 32.914063-14.738281 32.914063-32.914062v-41.984375zm0 0" fill="#e0ebfc"/><path d="m28.6875 263.242188v-222.183594c0-6.820313 5.527344-12.34375 12.34375-12.34375h394.996094c6.816406 0 12.34375 5.523437 12.34375 12.34375v222.183594c0 6.816406-5.527344 12.34375-12.34375 12.34375h-394.996094c-6.816406 0-12.34375-5.527344-12.34375-12.34375zm0 0" fill="#f9cfcf"/><path d="m381.277344 471.023438h-285.496094c-6.378906 0-11.546875-5.167969-11.546875-11.542969v-5.710938c0-6.375 5.167969-11.542969 11.546875-11.542969h285.496094c6.375 0 11.542968 5.167969 11.542968 11.542969v5.710938c.003907 6.375-5.167968 11.542969-11.542968 11.542969zm0 0" fill="#e0ebfc"/><path d="m239.585938 357.875h-2.113282c-10.734375 0-19.515625-8.78125-19.515625-19.515625v-2.113281c0-10.734375 8.78125-19.515625 19.515625-19.515625h2.113282c10.730468 0 19.515624 8.78125 19.515624 19.515625v2.113281c0 10.734375-8.785156 19.515625-19.515624 19.515625zm0 0" fill="#a4c9ff"/><path d="m436.203125 279.585938h-394.992187c-9.011719 0-16.34375-7.332032-16.34375-16.34375v-222.179688c0-9.011719 7.332031-16.34375 16.34375-16.34375h394.992187c9.011719 0 16.34375 7.332031 16.34375 16.34375v222.183594c0 9.007812-7.332031 16.339844-16.34375 16.339844zm-394.992187-246.867188c-4.601563 0-8.34375 3.742188-8.34375 8.34375v222.183594c0 4.601562 3.742187 8.34375 8.34375 8.34375h394.992187c4.601563 0 8.34375-3.742188 8.34375-8.34375v-222.183594c0-4.601562-3.742187-8.34375-8.34375-8.34375zm0 0" fill="#3762cc"/><path d="m141.972656 374.335938-16.59375 67.886718h226.300782l-16.59375-67.886718zm0 0" fill="#6bdddd"/><path d="m410.617188 152.964844c0 8.835937-7.164063 16-16 16-8.835938 0-16-7.164063-16-16 0-8.835938 7.164062-16 16-16 8.835937 0 16 7.164062 16 16zm0 0" fill="#ffea94"/><path d="m410.617188 67.847656c0 8.835938-7.164063 16-16 16-8.835938 0-16-7.164062-16-16 0-8.835937 7.164062-16 16-16 8.835937 0 16 7.164063 16 16zm0 0" fill="#6bdddd"/><path d="m410.617188 237.597656c0 8.839844-7.164063 16-16 16-8.835938 0-16-7.160156-16-16 0-8.835937 7.164062-16 16-16 8.835937 0 16 7.164063 16 16zm0 0" fill="#f9a7a7"/><path d="m98.617188 152.964844c0 8.835937-7.164063 16-16 16-8.835938 0-16-7.164063-16-16 0-8.835938 7.164062-16 16-16 8.835937 0 16 7.164062 16 16zm0 0" fill="#ffea94"/><path d="m98.617188 67.847656c0 8.835938-7.164063 16-16 16-8.835938 0-16-7.164062-16-16 0-8.835937 7.164062-16 16-16 8.835937 0 16 7.164063 16 16zm0 0" fill="#6bdddd"/><path d="m98.617188 237.597656c0 8.839844-7.164063 16-16 16-8.835938 0-16-7.160156-16-16 0-8.835937 7.164062-16 16-16 8.835937 0 16 7.164063 16 16zm0 0" fill="#f9a7a7"/><path d="m378.617188 152.964844c0-2.125.421874-4.144532 1.175781-6h-73.175781v12h73.175781c-.753907-1.855469-1.175781-3.878906-1.175781-6zm0 0" fill="#e0ebfc"/><path d="m381.890625 77.511719-16.484375 27.71875h-58.789062v12h62.199218c2.117188 0 4.078125-1.117188 5.15625-2.933594l18.230469-30.652344c-4.199219-.636719-7.851563-2.898437-10.3125-6.132812zm0 0" fill="#e0ebfc"/><path d="m391.902344 221.84375-17.929688-30.144531c-1.078125-1.820313-3.039062-2.933594-5.15625-2.933594h-62.199218v12h58.789062l16.300781 27.410156c2.402344-3.285156 6.019531-5.613281 10.195313-6.332031zm0 0" fill="#e0ebfc"/><path d="m170.617188 146.964844h-73.171876c.75 1.855468 1.171876 3.875 1.171876 6s-.421876 4.144531-1.171876 6h73.171876zm0 0" fill="#e0ebfc"/><path d="m170.617188 105.230469h-58.789063l-16.480469-27.714844c-2.460937 3.234375-6.117187 5.496094-10.316406 6.132813l18.230469 30.652343c1.082031 1.816407 3.042969 2.929688 5.15625 2.929688h62.199219zm0 0" fill="#e0ebfc"/><path d="m170.617188 188.765625h-62.199219c-2.117188 0-4.074219 1.113281-5.15625 2.933594l-17.925781 30.144531c4.175781.714844 7.792968 3.046875 10.195312 6.332031l16.300781-27.410156h58.785157zm0 0" fill="#e0ebfc"/><g fill="#3762cc"><path d="m394.617188 87.847656c-11.027344 0-20-8.972656-20-20s8.972656-20 20-20c11.027343 0 20 8.972656 20 20s-8.972657 20-20 20zm0-32c-6.617188 0-12 5.382813-12 12 0 6.617188 5.382812 12 12 12 6.617187 0 12-5.382812 12-12 0-6.617187-5.382813-12-12-12zm0 0"/><path d="m394.617188 257.597656c-11.027344 0-20-8.972656-20-20s8.972656-20 20-20c11.027343 0 20 8.972656 20 20s-8.972657 20-20 20zm0-32c-6.617188 0-12 5.382813-12 12 0 6.617188 5.382812 12 12 12 6.617187 0 12-5.382812 12-12 0-6.617187-5.382813-12-12-12zm0 0"/><path d="m82.617188 172.964844c-11.027344 0-20-8.972656-20-20s8.972656-20 20-20c11.027343 0 20 8.972656 20 20s-8.972657 20-20 20zm0-32c-6.617188 0-12 5.382812-12 12 0 6.617187 5.382812 12 12 12 6.617187 0 12-5.382813 12-12 0-6.617188-5.382813-12-12-12zm0 0"/><path d="m82.617188 87.847656c-11.027344 0-20-8.972656-20-20s8.972656-20 20-20c11.027343 0 20 8.972656 20 20s-8.972657 20-20 20zm0-32c-6.617188 0-12 5.382813-12 12 0 6.617188 5.382812 12 12 12 6.617187 0 12-5.382812 12-12 0-6.617187-5.382813-12-12-12zm0 0"/><path d="m82.617188 257.597656c-11.027344 0-20-8.972656-20-20s8.972656-20 20-20c11.027343 0 20 8.972656 20 20s-8.972657 20-20 20zm0-32c-6.617188 0-12 5.382813-12 12 0 6.617188 5.382812 12 12 12 6.617187 0 12-5.382812 12-12 0-6.617187-5.382813-12-12-12zm0 0"/><path d="m379.792969 162.964844h-73.175781c-2.207032 0-4-1.792969-4-4v-12c0-2.207032 1.792968-4 4-4h73.175781c1.328125 0 2.574219.664062 3.316406 1.765625.742187 1.105469.886719 2.507812.386719 3.738281-.582032 1.441406-.878906 2.953125-.878906 4.496094 0 1.542968.296874 3.054687.878906 4.5.5 1.230468.355468 2.628906-.386719 3.734375s-1.988281 1.765625-3.316406 1.765625zm-69.175781-8h64.101562c-.066406-.660156-.101562-1.328125-.101562-2 0-.667969.035156-1.335938.101562-2h-64.101562zm0 0"/><path d="m368.816406 121.230469h-62.199218c-2.207032 0-4-1.792969-4-4v-12c0-2.207031 1.792968-4 4-4h56.511718l15.324219-25.761719c.679687-1.140625 1.882813-1.875 3.207031-1.949219 1.363282-.078125 2.609375.515625 3.410156 1.574219 1.902344 2.496094 4.644532 4.128906 7.730469 4.597656 1.316407.199219 2.449219 1.042969 3.015625 2.242188.570313 1.207031.503906 2.613281-.175781 3.757812l-18.230469 30.652344c-1.789062 3.011719-5.085937 4.886719-8.59375 4.886719zm-58.199218-8h58.199218c.707032 0 1.363282-.375 1.71875-.972657l15.636719-26.289062c-1.214844-.566406-2.367187-1.25-3.441406-2.046875l-13.886719 23.355469c-.722656 1.210937-2.03125 1.957031-3.441406 1.957031h-54.785156zm0 0"/><path d="m381.707031 232.175781c-.0625 0-.125-.003906-.1875-.003906-1.34375-.066406-2.5625-.796875-3.25-1.953125l-15.140625-25.457031h-56.511718c-2.207032 0-4-1.789063-4-4v-12c0-2.207031 1.792968-4 4-4h62.199218c3.511719 0 6.808594 1.878906 8.597656 4.894531l17.929688 30.140625c.671875 1.132813.746094 2.527344.195312 3.71875-.554687 1.199219-1.660156 2.046875-2.960937 2.269531-3.070313.527344-5.785156 2.210938-7.636719 4.746094-.757812 1.039062-1.960937 1.644531-3.234375 1.644531zm-71.089843-35.410156h54.789062c1.410156 0 2.714844.742187 3.4375 1.957031l13.664062 22.96875c1.0625-.808594 2.203126-1.511718 3.40625-2.09375l-15.375-25.855468c-.359374-.605469-1.019531-.976563-1.71875-.976563h-58.203124zm0 0"/><path d="m170.617188 162.964844h-73.171876c-1.332031 0-2.574218-.660156-3.316406-1.765625-.746094-1.101563-.890625-2.503907-.394531-3.734375.585937-1.445313.882813-2.960938.882813-4.5 0-1.539063-.296876-3.054688-.878907-4.496094-.5-1.234375-.355469-2.632812.390625-3.738281.742188-1.101563 1.988282-1.765625 3.316406-1.765625h73.171876c2.207031 0 4 1.792968 4 4v12c0 2.207031-1.792969 4-4 4zm-68.097657-8h64.097657v-4h-64.097657c.066407.664062.097657 1.332031.097657 2 0 .671875-.03125 1.339844-.097657 2zm0 0"/><path d="m170.617188 121.230469h-62.199219c-3.511719 0-6.804688-1.875-8.597657-4.886719l-18.226562-30.652344c-.679688-1.140625-.746094-2.550781-.179688-3.753906.570313-1.203125 1.703126-2.042969 3.019532-2.246094 3.082031-.464844 5.828125-2.101562 7.726562-4.597656.804688-1.058594 2.066406-1.660156 3.414063-1.574219 1.328125.078125 2.53125.808594 3.210937 1.953125l15.320313 25.761719h56.511719c2.207031 0 4 1.789063 4 4v12c0 2.203125-1.792969 3.996094-4 3.996094zm-79.550782-35.265625 15.632813 26.289062c.359375.605469 1.015625.976563 1.71875.976563h58.199219v-4h-54.789063c-1.40625 0-2.714844-.742188-3.4375-1.957031l-13.886719-23.355469c-1.074218.800781-2.226562 1.484375-3.4375 2.046875zm0 0"/><path d="m95.53125 232.175781c-1.273438 0-2.476562-.605469-3.230469-1.640625-1.851562-2.535156-4.570312-4.21875-7.640625-4.746094-1.296875-.222656-2.40625-1.070312-2.957031-2.269531-.554687-1.195312-.480469-2.585937.191406-3.71875l17.929688-30.144531c1.789062-3.015625 5.082031-4.890625 8.597656-4.890625h62.195313c2.207031 0 4 1.792969 4 4v12c0 2.210937-1.792969 4-4 4h-56.511719l-15.140625 25.457031c-.683594 1.15625-1.90625 1.886719-3.246094 1.953125-.0625-.003906-.125 0-.1875 0zm-4.210938-12.578125c1.207032.582032 2.34375 1.285156 3.410157 2.097656l13.664062-22.972656c.71875-1.214844 2.027344-1.957031 3.4375-1.957031h54.785157v-4h-58.199219c-.703125 0-1.359375.375-1.714844.972656zm0 0"/></g><path d="m341.742188 130.152344h-21.570313c-1.21875 0-2.277344-.808594-2.632813-1.976563-1.578124-5.183593-3.652343-10.15625-6.171874-14.855469-.578126-1.078124-.402344-2.402343.460937-3.265624l15.265625-15.265626c2.683594-2.683593 2.683594-7.039062 0-9.722656l-21.390625-21.390625c-2.683594-2.683593-7.039063-2.683593-9.722656 0l-15.265625 15.265625c-.863282.863282-2.183594 1.039063-3.261719.460938-4.699219-2.519532-9.671875-4.59375-14.859375-6.171875-1.167969-.359375-1.976562-1.414063-1.976562-2.632813v-21.570312c0-3.796875-3.078126-6.875-6.875-6.875h-30.25c-3.796876 0-6.875 3.078125-6.875 6.875v21.570312c0 1.21875-.808594 2.277344-1.976563 2.632813-5.183594 1.578125-10.15625 3.652343-14.855469 6.171875-1.078125.578125-2.402344.402344-3.265625-.460938l-15.265625-15.265625c-2.683594-2.683593-7.039062-2.683593-9.722656 0l-21.390625 21.390625c-2.683594 2.683594-2.683594 7.035156 0 9.722656l15.265625 15.265626c.867188.863281 1.042969 2.1875.464844 3.265624-2.519532 4.699219-4.597656 9.667969-6.175782 14.855469-.355468 1.167969-1.410156 1.976563-2.632812 1.976563h-21.570312c-3.796876 0-6.875 3.078125-6.875 6.875v30.25c0 3.796875 3.078124 6.878906 6.875 6.878906h21.570312c1.21875 0 2.277344.808594 2.632812 1.976562 1.578126 5.183594 3.652344 10.152344 6.171876 14.855469.578124 1.078125.402343 2.402344-.460938 3.265625l-15.265625 15.265625c-2.683594 2.683594-2.683594 7.039063 0 9.722657l21.390625 21.390624c2.683594 2.683594 7.035156 2.683594 9.722656 0l15.265625-15.269531c.863281-.863281 2.183594-1.039062 3.261719-.460937 4.699219 2.519531 9.671875 4.59375 14.859375 6.175781 1.167969.355469 1.976563 1.410156 1.976563 2.632813v21.566406c0 3.796875 3.078124 6.878906 6.871093 6.878906h30.25c3.796875 0 6.878907-3.078125 6.878907-6.878906v-21.566406c0-1.222657.808593-2.28125 1.976562-2.632813 5.183594-1.578125 10.152344-3.65625 14.855469-6.175781 1.078125-.578125 2.402343-.402344 3.265625.460937l15.265625 15.269531c2.683593 2.683594 7.039062 2.683594 9.722656 0l21.390625-21.390624c2.683594-2.683594 2.683594-7.039063 0-9.722657l-15.269531-15.265625c-.863281-.863281-1.039063-2.1875-.460938-3.265625 2.519531-4.699219 4.597657-9.667969 6.175781-14.855469.355469-1.167968 1.410157-1.976562 2.632813-1.976562h21.566406c3.796875 0 6.878907-3.078125 6.878907-6.878906v-30.25c0-3.796875-3.078126-6.875-6.875-6.875zm-103.125 76.285156c-29.929688 0-54.285157-24.351562-54.285157-54.285156s24.355469-54.285156 54.285157-54.285156c29.933593 0 54.285156 24.351562 54.285156 54.285156s-24.351563 54.285156-54.285156 54.285156zm0 0" fill="#a4c9ff"/><path d="m253.742188 266.152344h-30.25c-5.996094 0-10.875-4.878906-10.875-10.875v-20.640625c-4.789063-1.511719-9.464844-3.457031-13.925782-5.789063l-14.609375 14.609375c-2.050781 2.054688-4.785156 3.1875-7.691406 3.1875-2.902344 0-5.632813-1.132812-7.6875-3.1875l-21.390625-21.386719c-2.054688-2.054687-3.1875-4.789062-3.1875-7.691406 0-2.90625 1.132812-5.636718 3.1875-7.691406l14.609375-14.609375c-2.332031-4.457031-4.277344-9.136719-5.789063-13.925781h-20.640624c-5.996094 0-10.875-4.878906-10.875-10.878906v-30.246094c0-5.996094 4.878906-10.875 10.875-10.875h20.644531c1.511719-4.792969 3.457031-9.464844 5.789062-13.925782l-14.609375-14.613281c-2.054687-2.050781-3.1875-4.785156-3.1875-7.6875 0-2.90625 1.132813-5.636719 3.1875-7.691406l21.386719-21.386719c4.238281-4.238281 11.136719-4.238281 15.375 0l14.613281 14.609375c4.457032-2.328125 9.136719-4.273437 13.925782-5.789062v-20.640625c0-5.996094 4.875-10.875 10.875-10.875h30.25c5.996093 0 10.875 4.875 10.875 10.875v20.640625c4.785156 1.511719 9.460937 3.457031 13.925781 5.789062l14.609375-14.609375c4.242187-4.238281 11.140625-4.238281 15.378906 0l21.390625 21.390625c2.054687 2.050781 3.1875 4.78125 3.1875 7.6875s-1.132813 5.636719-3.1875 7.691407l-14.609375 14.609374c2.328125 4.457032 4.273438 9.128907 5.789062 13.925782h20.640626c5.996093 0 10.875 4.878906 10.875 10.875v30.25c0 5.996094-4.878907 10.878906-10.875 10.878906h-20.640626c-1.515624 4.792969-3.460937 9.472656-5.789062 13.925781l14.609375 14.609375c2.054687 2.054688 3.1875 4.785156 3.1875 7.691406 0 2.902344-1.132813 5.632813-3.1875 7.691407l-21.390625 21.386719c-2.050781 2.054687-4.785156 3.1875-7.6875 3.1875-2.90625 0-5.636719-1.132813-7.691406-3.1875l-14.609375-14.609376c-4.464844 2.332032-9.140625 4.277344-13.925781 5.789063v20.640625c0 5.992188-4.878907 10.871094-10.875 10.871094zm-55.296876-45.59375c1.09375 0 2.203126.269531 3.230469.820312 4.503907 2.410156 9.257813 4.386719 14.128907 5.871094 2.878906.878906 4.8125 3.472656 4.8125 6.460938v21.566406c0 1.585937 1.289062 2.875 2.875 2.875h30.25c1.585937 0 2.878906-1.289063 2.878906-2.875v-21.566406c0-2.988282 1.933594-5.582032 4.808594-6.460938 4.875-1.480469 9.628906-3.457031 14.132812-5.871094 2.65625-1.429687 5.867188-.960937 7.980469 1.15625l15.265625 15.265625c1.085937 1.085938 2.984375 1.085938 4.066406 0l21.390625-21.386719c.542969-.542968.84375-1.265624.84375-2.035156 0-.769531-.300781-1.488281-.84375-2.03125l-15.265625-15.269531c-2.117188-2.117187-2.585938-5.324219-1.15625-7.984375 2.40625-4.492188 4.382812-9.246094 5.871094-14.128906.878906-2.878906 3.472656-4.8125 6.460937-4.8125h21.566407c1.585937 0 2.875-1.289063 2.875-2.875v-30.25c0-1.585938-1.289063-2.875-2.875-2.875h-21.566407c-2.988281 0-5.585937-1.933594-6.460937-4.8125-1.488282-4.878906-3.460938-9.636719-5.871094-14.132813-1.429688-2.65625-.960938-5.867187 1.160156-7.984375l15.261719-15.261718c.542969-.542969.84375-1.265626.84375-2.035157 0-.765625-.300781-1.488281-.84375-2.03125l-21.390625-21.390625c-1.121094-1.121094-2.945312-1.121094-4.066406 0l-15.265625 15.265625c-2.109375 2.113281-5.316407 2.582031-7.976563 1.160157-4.507812-2.414063-9.265625-4.390626-14.132812-5.875-2.878906-.875-4.8125-3.472657-4.8125-6.457032v-21.570312c0-1.585938-1.292969-2.875-2.878906-2.875h-30.25c-1.582032 0-2.875 1.289062-2.875 2.875v21.570312c0 2.984375-1.933594 5.582032-4.808594 6.457032-4.875 1.484374-9.628906 3.457031-14.132813 5.875-2.667969 1.421874-5.875.953124-7.984375-1.164063l-15.265625-15.261719c-1.121093-1.121094-2.945312-1.117187-4.066406 0l-21.390625 21.390625c-.539062.542969-.839844 1.265625-.839844 2.035157 0 .765624.300782 1.488281.839844 2.035156l15.265625 15.265625c2.121094 2.113281 2.585937 5.324219 1.160156 7.980469-2.414062 4.503906-4.386719 9.257812-5.871093 14.128906-.875 2.878906-3.472657 4.8125-6.460938 4.8125h-21.570312c-1.582032 0-2.875 1.289062-2.875 2.875v30.25c0 1.585937 1.289062 2.878906 2.875 2.878906h21.570312c2.988281 0 5.582031 1.933594 6.460938 4.808594 1.484374 4.878906 3.457031 9.632812 5.871093 14.132812 1.421875 2.65625.960938 5.867188-1.15625 7.980469l-15.269531 15.269531c-.539062.542969-.839844 1.265625-.839844 2.035156 0 .765626.300782 1.488282.839844 2.03125l21.390625 21.390626c1.085937 1.085937 2.980469 1.085937 4.066406 0l15.265625-15.269532c1.300782-1.300781 3.011719-1.976562 4.753906-1.976562zm40.171876-10.121094c-32.136719 0-58.285157-26.148438-58.285157-58.285156 0-32.140625 26.148438-58.285156 58.285157-58.285156 32.140624 0 58.285156 26.144531 58.285156 58.285156s-26.144532 58.285156-58.285156 58.285156zm0-108.570312c-27.726563 0-50.285157 22.558593-50.285157 50.285156 0 27.730468 22.558594 50.289062 50.285157 50.289062 27.726562 0 50.285156-22.558594 50.285156-50.289062 0-27.726563-22.558594-50.285156-50.285156-50.285156zm0 0" fill="#3762cc"/><path d="m394.617188 172.964844c-11.027344 0-20-8.972656-20-20s8.972656-20 20-20c11.027343 0 20 8.972656 20 20s-8.972657 20-20 20zm0-32c-6.617188 0-12 5.382812-12 12 0 6.617187 5.382812 12 12 12 6.617187 0 12-5.382813 12-12 0-6.617188-5.382813-12-12-12zm0 0" fill="#3762cc"/><path d="m234.421875 111.269531-62.460937 24.601563c-2.988282 1.179687-2.933594 5.4375.085937 6.535156l62.550781 22.761719c1.566406.570312 3.285156.570312 4.855469 0l62.566406-22.765625c3.011719-1.097656 3.066407-5.347656.085938-6.519532l-62.476563-24.613281c-1.675781-.660156-3.535156-.660156-5.207031 0zm0 0" fill="#4671c6"/><path d="m237.023438 169.59375c-1.289063 0-2.574219-.222656-3.796876-.664062l-62.546874-22.761719c-2.953126-1.074219-4.886719-3.800781-4.925782-6.945313-.042968-3.148437 1.820313-5.921875 4.742188-7.070312l62.460937-24.605469c2.621094-1.035156 5.511719-1.035156 8.132813 0l62.476562 24.613281c2.921875 1.148438 4.78125 3.921875 4.738282 7.0625-.039063 3.140625-1.972657 5.863282-4.921876 6.9375l-62.566406 22.769532c-1.222656.441406-2.507812.664062-3.792968.664062zm-62.351563-30.488281 61.292969 22.304687c.679687.25 1.433594.25 2.121094 0l61.289062-22.304687-61.214844-24.117188c-.730468-.285156-1.539062-.285156-2.273437 0zm0 0" fill="#3762cc"/><path d="m304.308594 177.460938v-38.453126s0 0 0-.003906c.175781-1.773437-1.136719-3.222656-2.917969-3.222656h-61.21875c-1.683594 0-3.21875 1.210938-3.386719 2.886719-.195312 1.929687 1.316406 3.554687 3.203125 3.554687h56.316407c.859374 0 1.5625.699219 1.5625 1.5625v33.675782c-1.996094 1.125-3.355469 3.238281-3.355469 5.695312v10.390625c0 .886719.71875 1.609375 1.605469 1.609375h9.941406c.886718 0 1.605468-.722656 1.605468-1.609375v-10.390625c0-2.457031-1.363281-4.570312-3.355468-5.695312zm0 0" fill="#ffea94"/><path d="m440.140625 378.332031h-403.226563c-20.355468 0-36.914062-16.558593-36.914062-36.914062v-304.476563c0-20.355468 16.558594-36.9140622 36.914062-36.9140622h403.222657c20.355469 0 36.917969 16.5585942 36.917969 36.9140622v304.476563c0 20.355469-16.5625 36.914062-36.914063 36.914062zm-403.226563-370.304687c-15.941406 0-28.914062 12.96875-28.914062 28.914062v304.476563c0 15.941406 12.972656 28.914062 28.914062 28.914062h403.222657c15.949219 0 28.917969-12.972656 28.917969-28.914062v-304.476563c0-15.945312-12.96875-28.914062-28.917969-28.914062zm0 0" fill="#3762cc"/><path d="m381.277344 475.023438h-285.496094c-8.574219 0-15.546875-6.972657-15.546875-15.542969v-5.710938c0-8.570312 6.972656-15.542969 15.546875-15.542969h285.496094c8.570312 0 15.542968 6.972657 15.542968 15.542969v5.710938c.003907 8.570312-6.972656 15.542969-15.542968 15.542969zm-285.496094-28.800782c-4.164062 0-7.546875 3.382813-7.546875 7.546875v5.707031c0 4.164063 3.382813 7.546876 7.546875 7.546876h285.496094c4.160156 0 7.542968-3.382813 7.542968-7.546876v-5.707031c0-4.164062-3.382812-7.546875-7.542968-7.546875zm0 0" fill="#3762cc"/><path d="m351.679688 446.222656h-226.300782c-1.226562 0-2.386718-.5625-3.144531-1.53125-.757813-.964844-1.03125-2.226562-.742187-3.417968l16.597656-67.886719c.4375-1.792969 2.039062-3.050781 3.882812-3.050781h193.113282c1.84375 0 3.445312 1.261718 3.882812 3.050781l16.59375 67.886719c.292969 1.191406.023438 2.453124-.738281 3.417968-.757813.964844-1.917969 1.53125-3.144531 1.53125zm-221.203126-8h216.109376l-14.640626-59.886718h-186.832031zm0 0" fill="#3762cc"/><path d="m239.449219 165.167969c-1.566407.570312-3.289063.570312-4.855469 0l-36.699219-13.351563v21.269532c0 1.367187.894531 2.582031 2.253907 3.039062 8.710937 2.914062 41.328124 12.179688 73.871093.027344 1.289063-.484375 2.128907-1.6875 2.128907-3.003906v-21.332032zm0 0" fill="#4671c6"/><path d="m238.65625 186.253906c-18.714844 0-33.890625-4.367187-39.777344-6.335937-2.980468-1-4.980468-3.746094-4.980468-6.832031v-21.269532c0-1.304687.636718-2.527344 1.707031-3.277344 1.070312-.75 2.4375-.925781 3.664062-.480468l36.695313 13.351562c.683594.25 1.4375.25 2.121094 0l36.699218-13.351562c1.222656-.445313 2.59375-.269532 3.660156.480468 1.070313.75 1.707032 1.972657 1.707032 3.277344v21.328125c0 2.984375-1.898438 5.695313-4.726563 6.753907-12.707031 4.742187-25.394531 6.355468-36.769531 6.355468zm-36.757812-13.765625c9.382812 3.082031 39.808593 11.253907 70.25.089844v-15.050781l-31.332032 11.402344c-2.445312.886718-5.140625.886718-7.589844 0l-31.328124-11.402344zm37.550781-7.320312h.019531zm0 0" fill="#3762cc"/></svg>